<svg width="25" height="24" viewBox="0 0 25 24" fill="none" xmlns="http://www.w3.org/2000/svg">
<path d="M16.7735 3.10199C14.9635 3.10199 13.3435 3.98199 12.3335 5.33199C11.8176 4.6408 11.1478 4.07938 10.377 3.69228C9.60631 3.30519 8.75597 3.10308 7.8935 3.10199C4.8235 3.10199 2.3335 5.60199 2.3335 8.69199C2.3335 9.88199 2.5235 10.982 2.8535 12.002C4.4335 17.002 9.3035 19.992 11.7135 20.812C12.0535 20.932 12.6135 20.932 12.9535 20.812C15.3635 19.992 20.2335 17.002 21.8135 12.002C22.1435 10.982 22.3335 9.88199 22.3335 8.69199C22.3335 5.60199 19.8435 3.10199 16.7735 3.10199Z" fill="black"/>
</svg>
