<svg width="353" height="286" viewBox="0 0 353 286" fill="none" xmlns="http://www.w3.org/2000/svg">
<g clip-path="url(#clip0_2714_1999)">
<path d="M105.984 154.08H117.709L102.74 212.291H91.5153L79.7074 174.87L67.8165 212.291H56.5915L41.623 154.08H53.3481L63.0784 192.416L73.6404 154.08H85.697L96.2589 192.416L105.989 154.08H105.984Z" fill="#181C1C"/>
<path d="M116.711 201.146C116.711 190.501 125.775 186.844 139.081 186.844H144.736C144.319 180.774 140.495 180.108 136.92 180.108C132.845 180.108 128.522 182.851 126.693 184.849L118.794 178.445C122.369 173.621 128.773 169.715 137.503 169.715C149.977 169.715 156.13 175.453 156.13 187.178V212.291H144.736L144.819 205.97C142.49 210.211 138.915 213.371 131.514 213.371C123.364 213.371 116.711 208.713 116.711 201.146ZM144.899 194.911L139.578 194.828C133.174 194.828 128.436 195.991 128.436 200.066C128.436 202.395 131.014 203.975 134.091 203.975C139.747 203.975 143.987 200.898 144.902 194.911H144.899Z" fill="#181C1C"/>
<path d="M165.441 212.291V171.046H176.835V177.368C178.83 173.21 182.905 170.383 188.56 170.383C191.721 170.383 194.547 171.132 196.71 172.461L192.635 184.435C191.22 183.103 188.726 181.608 185.317 181.608C177.915 181.608 177.166 189.924 177.166 195.579V212.294H165.441V212.291Z" fill="#181C1C"/>
<path d="M227.058 154.08H238.783V212.291H227.058V206.97C224.646 210.879 220.322 213.291 215.664 213.291C203.608 213.291 198.201 203.729 198.201 191.339C198.201 178.948 203.605 170.052 215.664 170.052C220.322 170.052 224.646 172.298 227.058 176.039V154.086V154.08ZM226.892 191.336C226.892 185.1 223.983 179.942 218.493 179.942C213.004 179.942 209.929 185.098 209.929 191.336C209.929 197.574 212.755 203.061 218.493 203.061C224.232 203.061 226.892 197.823 226.892 191.336Z" fill="#181C1C"/>
<path d="M310.879 206.053L303.643 213.289L297.574 207.385C292.75 211.211 286.431 213.289 278.696 213.289C265.722 213.289 257.906 206.719 257.906 196.74C257.906 187.675 263.31 183.02 269.466 179.859C265.308 175.37 263.144 170.878 263.144 167.386C263.144 159.487 269.297 153.083 281.356 153.083C292.581 153.083 299.568 159.319 299.568 168.052C299.568 176.036 292.833 179.611 285.763 182.603L295.41 191.667C296.408 188.924 296.991 185.763 297.074 182.02L308.133 183.517C307.884 189.67 306.552 195.159 304.058 199.649L310.876 206.053H310.879ZM289.509 199.649L276.121 186.761C272.295 188.755 269.551 191.167 269.551 194.994C269.551 199.817 273.709 202.727 279.282 202.727C283.022 202.727 286.6 201.729 289.509 199.649ZM279.03 175.95C283.771 174.121 287.512 172.375 287.846 169.215C288.26 165.474 285.434 162.979 281.611 162.979C277.535 162.979 274.875 165.308 274.875 168.134C274.875 170.463 276.455 172.958 279.033 175.95H279.03Z" fill="#181C1C"/>
<path d="M42.4936 284.675L38.4186 273.45H16.0487L11.9737 284.675H0L21.5383 226.464H32.9318L54.4701 284.675H42.4964H42.4936ZM19.8751 262.888H34.6778L27.2765 242.347L19.8751 262.888Z" fill="#181C1C"/>
<path d="M57.4629 273.364L65.5301 267.96C66.8617 273.781 73.1801 276.028 78.6697 276.028C83.242 276.028 86.4854 274.282 86.4854 271.787C86.4854 264.72 59.3775 271.953 59.3775 254.741C59.3775 247.674 66.1959 242.018 78.3381 242.018C90.4804 242.018 97.0474 247.591 97.0474 252.246L90.1461 257.401C89.2316 253.326 83.4105 251.663 78.5039 251.663C74.1802 251.663 71.1025 252.909 71.1025 254.989C71.1025 260.393 97.5474 255.155 97.5474 271.787C97.5474 278.854 91.5606 285.841 77.2579 285.841C66.1158 285.841 58.7973 280.103 57.4657 273.367L57.4629 273.364Z" fill="#181C1C"/>
<path d="M103.197 273.364L111.264 267.96C112.596 273.781 118.914 276.028 124.404 276.028C128.976 276.028 132.22 274.282 132.22 271.787C132.22 264.72 105.112 271.953 105.112 254.741C105.112 247.674 111.93 242.018 124.073 242.018C136.215 242.018 142.782 247.591 142.782 252.246L135.88 257.401C134.966 253.326 129.145 251.663 124.238 251.663C119.915 251.663 116.837 252.909 116.837 254.989C116.837 260.393 143.282 255.155 143.282 271.787C143.282 278.854 137.295 285.841 122.992 285.841C111.85 285.841 104.532 280.103 103.2 273.367L103.197 273.364Z" fill="#181C1C"/>
<path d="M148.434 263.802C148.434 251.829 156.249 242.098 170.303 242.098C184.357 242.098 192.173 251.829 192.173 263.802C192.173 275.776 184.44 285.672 170.303 285.672C156.166 285.672 148.434 275.859 148.434 263.802ZM180.451 263.802C180.451 256.984 176.127 252.66 170.306 252.66C164.485 252.66 160.161 256.984 160.161 263.802C160.161 270.621 164.485 275.113 170.306 275.113C176.127 275.113 180.451 270.707 180.451 263.802Z" fill="#181C1C"/>
<path d="M197.829 263.885C197.829 251.912 206.393 242.098 219.699 242.098C229.843 242.098 237.576 247.502 240.154 256.567L229.592 259.227C227.68 254.486 223.771 252.658 219.696 252.658C213.875 252.658 209.551 257.147 209.551 263.883C209.551 270.618 213.875 275.193 219.696 275.193C224.437 275.193 228.095 272.533 229.758 267.626L240.403 270.369C238.074 279.848 230.175 285.752 219.696 285.752C206.391 285.752 197.826 275.856 197.826 263.883L197.829 263.885Z" fill="#181C1C"/>
<path d="M246.391 231.619C246.391 227.71 249.634 224.467 253.543 224.467C257.453 224.467 260.696 227.71 260.696 231.619C260.696 235.529 257.535 238.772 253.543 238.772C249.551 238.772 246.391 235.611 246.391 231.619ZM247.722 284.675V243.43H259.447V284.675H247.722Z" fill="#181C1C"/>
<path d="M266.516 263.803C266.516 251.829 274.583 242.43 287.802 242.43C298.696 242.43 307.012 248.666 307.012 263.137V267.795H278.072C278.072 271.535 281.481 275.445 288.134 275.445C293.955 275.445 297.696 272.536 299.61 269.707L307.26 276.111C304.434 281.514 296.781 285.672 287.802 285.672C273 285.672 266.516 275.859 266.516 263.803ZM295.872 260.642C295.872 257.481 293.212 252.826 287.474 252.826C281.321 252.826 278.243 256.818 278.243 260.642H295.872ZM288.471 237.606L281.235 235.529L293.709 224.635L302.608 227.879L288.471 237.609V237.606Z" fill="#181C1C"/>
<path d="M312.918 273.364L320.985 267.96C322.317 273.781 328.635 276.028 334.125 276.028C338.697 276.028 341.94 274.282 341.94 271.787C341.94 264.72 314.833 271.953 314.833 254.741C314.833 247.674 321.651 242.018 333.793 242.018C345.935 242.018 352.502 247.591 352.502 252.246L345.601 257.401C344.687 253.326 338.866 251.663 333.959 251.663C329.635 251.663 326.558 252.909 326.558 254.989C326.558 260.393 353.003 255.155 353.003 271.787C353.003 278.854 347.016 285.841 332.713 285.841C321.571 285.841 314.252 280.103 312.921 273.367L312.918 273.364Z" fill="#181C1C"/>
<path d="M182.778 64.6175C183.538 62.1725 184.903 60.0949 186.668 58.2245C188.143 56.6636 189.461 54.9507 190.779 53.2516C191.964 51.7238 193.036 50.1076 194.188 48.5522C197.075 44.6623 200.327 41.1232 204.223 38.2058C205.283 37.4101 206.209 36.4708 206.894 35.3325C209.466 31.0586 209.637 26.6382 207.521 22.1598C207.099 21.2647 206.394 20.4414 205.654 19.7673C204.281 18.5158 202.648 18.3555 200.965 19.1374C200.443 19.3805 199.896 19.6706 199.504 20.0795C198.551 21.0768 197.539 22.0659 196.802 23.2179C194.572 26.7128 191.992 29.9203 189.229 32.9952C186.594 35.9293 183.9 38.8136 181.317 41.7946C178.432 45.1264 176.095 48.8257 174.393 52.9035C173.705 54.5529 173.034 56.2133 172.454 57.9041C170.385 63.9351 167.799 69.723 164.37 75.1104C163.431 76.5829 162.406 78.014 161.303 79.3677C160.74 80.0557 159.955 80.5889 159.195 81.0834C158.557 81.4978 157.69 82.183 156.844 81.4646C155.935 80.448 156.913 78.4008 157.049 77.7294C157.61 74.9032 158.212 73.671 158.784 70.8447C159.4 67.8002 159.966 64.7391 159.767 61.6144C159.687 60.3546 159.463 59.0699 159.068 57.8737C158.411 55.8845 156.933 54.691 154.872 54.2766C153.001 53.9009 151.164 54.0998 149.363 54.6882C147.1 55.4286 145.467 56.962 144.238 58.9318C143.271 60.4789 142.409 62.0896 141.508 63.6782C140.514 65.4325 139.45 67.1482 137.994 68.5489C134.748 71.6708 132.386 75.3562 130.814 79.5556C129.701 82.5311 128.084 85.2026 126.065 87.6394C125.062 88.8467 124.07 90.065 123.02 91.2337C121.506 92.9189 119.926 94.549 118.042 95.8336C117.357 96.3005 116.6 96.7315 115.812 96.9581C114.359 97.378 113.364 96.342 113.732 94.8639C113.842 94.4136 114.058 93.9632 114.329 93.5875C114.84 92.8775 115.395 92.1979 115.984 91.5514C117.114 90.3082 118.343 89.1506 119.412 87.8576C120.316 86.7691 121.117 85.5784 121.838 84.36C122.614 83.0477 122.675 81.6967 121.741 80.3513C121.028 79.3208 120.84 78.1162 121.081 76.8868C121.352 75.4916 121.62 74.0909 121.998 72.7206C123.78 66.2696 126.217 60.0507 128.803 53.8898C130.491 49.87 131.806 45.7425 132.712 41.4824C133.579 37.399 134.151 33.2826 133.905 29.0915C133.8 27.2957 133.505 25.5331 132.615 23.9307C131.72 22.3173 130.355 21.436 128.49 21.5907C127.559 21.668 126.617 21.9001 125.736 22.2151C123.824 22.8975 122.117 23.986 120.628 25.3452C118.768 27.0416 116.956 28.7959 115.218 30.6193C113.166 32.7742 111.002 34.7634 108.411 36.258C106.11 37.5869 104.676 39.5374 104.032 42.1399C102.471 48.4445 100.858 54.7352 99.2442 61.0287C97.9954 65.9049 96.8019 70.7977 95.1608 75.569C94.6442 77.0719 94.3403 78.6881 94.2105 80.2739C94.0226 82.5615 93.9894 84.8711 94.053 87.1642C94.1745 91.5376 93.796 95.8309 92.5832 100.055C91.8455 102.619 91.445 105.26 91.5693 107.954C91.677 110.269 92.4423 112.302 94.0972 113.965C94.5613 114.432 95.0199 114.905 95.5007 115.352C96.8157 116.576 97.6722 118.049 98.2385 119.762C98.8546 121.629 99.5591 123.48 100.418 125.246C101.034 126.511 101.847 127.727 102.78 128.776C104.667 130.901 106.875 131.103 109.254 129.567C110.621 128.683 111.721 127.514 112.729 126.257C115.26 123.105 117.257 119.615 118.987 115.988C121.404 110.915 123.708 105.785 126.007 100.657C127.725 96.8282 129.355 92.9549 131.46 89.3136C132.063 88.272 132.698 87.2443 133.414 86.2801C133.817 85.7358 134.367 85.2606 134.939 84.8932C135.773 84.3572 136.466 84.5479 136.994 85.3822C137.246 85.7773 137.453 86.2248 137.566 86.6752C137.77 87.4874 137.945 88.3135 138.03 89.1451C138.486 93.5433 139.141 97.9057 140.307 102.18C140.959 104.572 141.481 107.003 142.199 109.374C142.522 110.435 143.078 111.468 143.716 112.382C144.785 113.913 146.332 114.391 148.158 113.971C149.57 113.645 150.849 113.01 151.999 112.164C153.526 111.04 154.999 109.838 156.471 108.644C157.903 107.487 159.422 106.481 161.185 105.92C162.679 105.448 163.693 104.478 164.359 103.1C164.66 102.475 164.983 101.856 165.229 101.21C165.984 99.2318 166.741 97.2537 167.428 95.2534C168.627 91.7696 170.288 88.5649 172.606 85.6695C174.222 83.65 175.609 81.4453 177.134 79.3512C179.035 76.7404 180.198 73.8091 181.043 70.7231C181.601 68.6815 182.143 66.6343 182.77 64.6147L182.778 64.6175Z" fill="#181C1C"/>
<path d="M261.443 82.1608C261.324 80.8623 260.611 79.4782 259.106 78.782C257.349 77.8703 252.851 76.0331 251.928 74.6158C248.373 70.1236 245.455 68.3748 244.784 67.8305C243.195 66.5431 242.308 63.9378 244.723 62.1697C245.9 61.3077 248.732 60.7772 250.143 60.0258C251.119 59.6445 253.647 57.7963 255.141 56.1828C256.047 55.1689 257.111 54.6329 258.061 53.8152C258.934 53.0664 259.335 52.0221 259.299 50.8784C259.266 49.823 259.172 48.7621 259.017 47.7178C258.824 46.3972 258.136 45.3391 257.078 44.5213C256.597 44.1483 256.067 43.9881 255.451 43.9909C254.1 43.9964 253.039 44.5849 252.24 45.6098C251.24 46.8945 248.958 49.2014 247.986 49.9998C246.378 51.3536 245.734 52.2376 244.096 52.9559C242.48 53.6632 240.836 53.7157 239.17 53.2488C237.396 52.7515 236.556 49.4279 236.473 47.32C236.344 44.0295 235.169 42.4658 234.805 41.6895C233.915 39.8053 233.976 38.1228 232.658 36.7138C230.965 34.9015 229.644 34.5948 229.569 33.2908C229.437 30.9756 234.653 30.4231 236.576 29.097C239.631 26.9862 241.015 25.6049 242.908 22.983C246.231 18.3803 248.306 16.3193 251.423 11.5591C252.099 10.5259 253.345 8.51183 253.801 7.36806C254.884 4.65505 252.959 1.23479 250.163 0.430833C250.022 0.389392 249.881 0.342425 249.737 0.331374C248.287 0.215339 246.825 -0.0581715 245.383 0.0191851C238.333 0.400442 232.666 1.1823 226.262 4.08869C224.563 4.8595 223.027 4.91751 221.621 6.1718C220.632 7.05587 219.499 7.7355 218.237 8.14991C216.789 8.6251 214.93 10.943 214.347 12.3161C213.51 14.297 212.717 16.3 211.998 18.3251C211.484 19.781 211.739 21.2342 212.529 22.5382C213.057 23.4085 213.706 24.2042 214.325 25.0164C214.966 25.8563 215.432 27.2736 216.035 28.1411C217.306 29.9728 217.8 30.9812 216.676 32.8847C216.159 33.7577 215.56 34.6141 214.855 35.338C211.703 38.5842 209.404 42.8471 206.183 46.027C204.078 48.1046 200.522 49.9473 198.403 52.0111C191.496 58.7439 187.653 62.4957 184.172 71.5381C183.531 73.2068 182.655 75.4446 182.083 76.8453C178.937 84.5506 180.02 93.0764 186.056 98.8809C186.846 99.6379 187.742 100.132 188.814 100.353C191.101 100.829 193.087 100.917 195.375 100.671C197.884 100.4 199.936 99.9307 202.467 99.5881C204.564 99.3036 206.879 98.2316 208.979 97.9581C212.283 97.11 214.405 96.527 216.836 94.1317C218.06 92.8692 220.778 90.5651 221.325 89.5401C222.546 87.2553 224.925 84.8517 226.047 82.5144C227.039 80.4479 228.307 77.3509 229.984 75.7872C231.089 74.7567 232.318 73.9113 233.747 73.3919C236.219 72.494 236.598 75.2927 238.612 76.9752C239.388 77.6244 240.095 78.3924 240.692 79.2102C243.378 82.8874 246.776 85.5617 251.121 87.026C252.345 87.4376 253.533 87.4874 254.782 87.2746C256.702 86.9431 258.307 86.4486 259.948 85.4927C261.04 84.8572 261.554 83.4068 261.443 82.1663V82.1608ZM224.718 22.8919C226.619 19.6705 227.624 17.1868 227.644 14.5954C227.649 13.8467 227.751 13.098 227.843 12.352C227.978 11.258 228.542 10.4154 229.44 9.79374C229.674 9.63074 229.915 9.4705 230.174 9.34894C232.752 8.1582 235.435 7.29899 238.236 6.8238C238.482 6.78236 238.736 6.79617 238.866 6.79065C240.377 6.84867 240.811 7.41503 240.385 8.766C239.819 10.559 238.816 12.1034 237.57 13.5179C236.612 14.6064 235.73 15.7695 234.907 16.9658C234.122 18.104 233.498 19.35 232.735 20.5049C231.738 22.0216 228.881 24.3534 227.249 25.4723C226.246 26.1602 225.224 26.2735 224.538 26.174C223.955 26.0911 223.397 25.6574 223.472 25.1407C223.527 24.7567 224.511 23.2344 224.712 22.8919H224.718ZM224.704 68.7864C223.292 70.2589 221.552 70.817 220.129 71.574C219.115 72.1127 216.618 74.0411 215.678 74.6158C214.2 75.5192 212.689 77.3896 211.263 78.3786C209.07 79.9451 205.539 81.9895 202.624 82.0835C199.306 82.089 200.102 78.3289 200.453 75.6933C201.829 68.8472 200.188 58.9538 208.186 56.1828C211.018 55.401 213.167 53.8538 215.106 51.931C217.449 49.2262 221.983 39.518 225.867 45.491C227.218 47.5686 225.514 50.2346 227 54.6937C228.003 57.7051 228.174 60.3656 227.102 63.5952C226.586 65.1507 226.318 67.0984 224.701 68.7864H224.704Z" fill="#181C1C"/>
</g>
<defs>
<clipPath id="clip0_2714_1999">
<rect width="353" height="285.838" fill="white"/>
</clipPath>
</defs>
</svg>
