<svg width="801" height="76" viewBox="0 0 801 76" fill="none" xmlns="http://www.w3.org/2000/svg">
<path d="M775.673 75.422C762.23 75.422 753.098 68.1363 751.866 59.0035L761.82 53.2571C763.051 61.0559 770.645 63.9291 777.417 63.9291C783.266 63.9291 787.371 61.5689 787.371 58.1826C787.371 48.9473 754.124 57.8748 754.124 36.8386C754.124 28.1164 762.641 21.3438 777.007 21.3438C791.886 21.3438 799.48 28.1164 799.48 34.7863L790.86 40.3276C790.039 34.889 782.959 32.734 777.007 32.734C771.466 32.734 767.566 34.3759 767.566 37.0439C767.566 44.1243 800.198 38.07 800.198 58.08C800.198 67.2128 792.399 75.422 775.673 75.422Z" fill="black"/>
<path d="M721.513 75.2164C703.658 75.2164 695.654 63.1078 695.654 48.2286C695.654 33.452 705.608 21.8564 721.513 21.8564C734.545 21.8564 744.806 29.5526 744.806 47.4076V53.1541H708.891C708.891 58.1823 713.406 63.313 721.821 63.313C729.004 63.313 733.519 59.5162 735.776 55.7195L745.217 62.9026C741.831 69.7778 732.595 75.2164 721.513 75.2164ZM709.096 44.2266H731.98C731.98 40.2246 728.799 33.965 721.102 33.965C712.893 33.965 709.096 39.301 709.096 44.2266Z" fill="black"/>
<path d="M678.439 16.8289C673.821 16.8289 670.025 13.0321 670.025 8.41445C670.025 3.79677 673.821 0 678.439 0C683.057 0 686.854 3.79677 686.854 8.41445C686.854 13.0321 683.057 16.8289 678.439 16.8289ZM671.769 73.9856V23.0884H685.212V73.9856H671.769Z" fill="black"/>
<path d="M635.249 75.3193C619.241 75.3193 608.672 63.1081 608.672 48.3315C608.672 33.5549 619.241 21.4463 635.249 21.4463C647.358 21.4463 656.901 28.1163 660.082 38.8909L648.076 42.1746C645.613 35.915 640.585 33.6575 635.249 33.6575C627.758 33.6575 622.114 39.5066 622.114 48.3315C622.114 57.259 627.758 63.1081 635.249 63.1081C641.201 63.1081 646.126 59.927 648.281 53.3596L660.39 56.7459C657.516 68.0336 647.768 75.3193 635.249 75.3193Z" fill="black"/>
<path d="M574.321 75.2167C557.39 75.2167 547.744 63.1081 547.744 48.2289C547.744 33.4523 557.39 21.4463 574.321 21.4463C591.355 21.4463 600.899 33.4523 600.899 48.2289C600.899 63.1081 591.355 75.2167 574.321 75.2167ZM574.321 63.0055C581.812 63.0055 587.456 57.259 587.456 48.2289C587.456 39.3013 581.812 33.6575 574.321 33.6575C566.83 33.6575 561.187 39.3013 561.187 48.2289C561.187 57.259 566.83 63.0055 574.321 63.0055Z" fill="black"/>
<path d="M516.53 75.422C503.087 75.422 493.955 68.1363 492.723 59.0035L502.677 53.2571C503.908 61.0559 511.502 63.9291 518.274 63.9291C524.123 63.9291 528.228 61.5689 528.228 58.1826C528.228 48.9473 494.981 57.8748 494.981 36.8386C494.981 28.1164 503.498 21.3438 517.864 21.3438C532.743 21.3438 540.337 28.1164 540.337 34.7863L531.717 40.3276C530.896 34.889 523.816 32.734 517.864 32.734C512.323 32.734 508.423 34.3759 508.423 37.0439C508.423 44.1243 541.055 38.07 541.055 58.08C541.055 67.2128 533.256 75.422 516.53 75.422Z" fill="black"/>
<path d="M459.51 75.422C446.067 75.422 436.934 68.1363 435.703 59.0035L445.657 53.2571C446.888 61.0559 454.481 63.9291 461.254 63.9291C467.103 63.9291 471.208 61.5689 471.208 58.1826C471.208 48.9473 437.96 57.8748 437.96 36.8386C437.96 28.1164 446.477 21.3438 460.844 21.3438C475.723 21.3438 483.316 28.1164 483.316 34.7863L474.697 40.3276C473.876 34.889 466.795 32.734 460.844 32.734C455.302 32.734 451.403 34.3759 451.403 37.0439C451.403 44.1243 484.035 38.07 484.035 58.08C484.035 67.2128 476.236 75.422 459.51 75.422Z" fill="black"/>
<path d="M420.007 73.985L414.876 59.6188H386.349L381.116 73.985H367.365L393.943 2.1543H407.18L433.758 73.985H420.007ZM390.762 47.4076H410.464L400.613 20.0094L390.762 47.4076Z" fill="black"/>
<path d="M339.231 66.9054L330.92 75.3199L322.916 67.6237C317.066 72.4467 309.268 75.2173 299.724 75.2173C284.23 75.2173 274.584 67.1107 274.584 54.7968C274.584 43.6118 281.254 37.8653 288.95 34.0686C283.819 28.5273 281.048 22.8835 281.048 18.471C281.048 8.51736 288.847 0.923828 303.008 0.923828C316.451 0.923828 324.968 8.51736 324.968 19.292C324.968 29.143 316.656 33.5555 307.831 37.2496L320.761 49.4608C322.197 45.8693 323.018 41.5595 323.121 36.6339L335.64 38.481C335.332 46.1772 333.588 52.9498 330.406 58.5936L339.231 66.9054ZM294.491 19.1893C294.491 22.0626 296.646 25.5515 300.032 29.5535C306.189 27.1933 311.217 24.9358 311.525 20.626C311.936 15.7004 308.344 12.5193 303.316 12.5193C297.98 12.5193 294.491 15.3926 294.491 19.1893ZM300.238 63.0061C305.368 63.0061 309.986 61.5694 313.783 58.6962L296.646 42.1752C291.618 44.8432 287.924 48.0242 287.924 53.155C287.924 59.2093 293.054 63.0061 300.238 63.0061Z" fill="black"/>
<path d="M225.905 2.1543H239.348V73.985H225.905V67.2124C222.929 72.1379 217.388 75.2164 211.539 75.2164C196.763 75.2164 190.093 63.4156 190.093 48.1259C190.093 33.2467 196.763 21.8564 211.539 21.8564C217.388 21.8564 222.929 24.7297 225.905 29.45V2.1543ZM214.72 63.313C221.698 63.313 225.7 56.8482 225.7 48.1259C225.7 39.7115 221.698 33.3493 214.72 33.3493C207.435 33.3493 203.535 39.7115 203.535 48.1259C203.535 56.8482 207.435 63.313 214.72 63.313Z" fill="black"/>
<path d="M152.698 73.9856V23.0884H165.833V31.2977C168.296 26.0643 173.324 22.3701 180.302 22.3701C184.099 22.3701 187.587 23.2937 190.153 24.9355L185.535 38.4807C183.688 36.8389 180.61 35.197 176.608 35.197C167.064 35.197 166.141 46.2795 166.141 53.2573V73.9856H152.698Z" fill="black"/>
<path d="M110.335 75.3193C100.587 75.3193 92.3777 69.5728 92.3777 60.2349C92.3777 47.1001 103.563 42.585 119.365 42.585H126.754C126.241 34.3758 121.315 33.4523 116.697 33.4523C111.567 33.4523 106.436 37.0438 104.178 39.7118L94.8404 32.4261C99.1503 26.1666 106.846 21.4463 117.416 21.4463C132.192 21.4463 139.786 28.5267 139.786 42.9955V73.9853H126.754L126.856 65.8787C123.983 71.3173 119.468 75.3193 110.335 75.3193ZM113.106 64.1342C120.494 64.1342 125.933 60.1322 126.959 52.3335L120.392 52.2309C111.669 52.2309 105.82 53.8727 105.82 59.1061C105.82 62.1846 109.104 64.1342 113.106 64.1342Z" fill="black"/>
<path d="M79.6295 2.1543H93.072L74.6013 73.985H61.6718L46.5873 26.1663L31.4003 73.985H18.4707L0 2.1543H13.4426L25.9617 51.6149L39.6095 2.1543H53.4626L67.1104 51.6149L79.6295 2.1543Z" fill="black"/>
</svg>
