<svg width="158" height="105" viewBox="0 0 158 105" fill="none" xmlns="http://www.w3.org/2000/svg">
<g clip-path="url(#clip0_1_124)">
<path d="M29.3607 6.40334C25.3329 8.19414 22.3849 11.1514 20.7631 13.0408C18.0738 16.1665 17.3676 18.2653 14.4319 19.7234C13.0072 20.4299 12.9169 20.0644 11.9808 20.586C8.40461 22.5863 9.3202 28.1722 6.208 38.687C3.76093 46.9469 2.7509 49.6043 2.7509 49.6043C2.15556 51.1692 1.37134 53.0997 1.17016 55.7489C0.985398 58.1558 1.41651 59.3223 1.64233 61.2692C2.14324 65.6722 0.673356 66.2185 0.299727 72.1249C0.0533782 76.0433 -0.603552 83.2558 1.46988 86.9031C2.71395 89.0882 3.62544 89.0717 4.36038 91.2774C5.5018 94.7029 3.78556 96.1857 4.68063 99.2867C5.60444 102.49 8.69201 105.271 11.8165 104.975C13.1017 104.856 14.2882 103.99 16.608 102.265C19.3507 100.227 21.8388 98.3749 24.1627 95.1506C25.5874 93.175 26.9834 87.7779 28.9747 83.3009C30.4652 79.9535 31.1098 78.3228 31.1098 78.3228C32.1116 75.7886 32.1609 75.3491 32.8958 74.006C33.5692 72.7697 33.9838 72.3138 34.9118 70.5025C35.3552 69.6358 35.8643 68.5638 35.9505 68.3831C37.0427 66.0706 37.0427 65.8324 37.4615 65.4299C38.4058 64.5263 40.1302 64.095 40.9227 64.7645C41.7685 65.4751 40.9186 66.8921 41.1608 69.4715C41.3866 71.8456 42.216 71.8291 42.8401 74.4209C43.5914 77.5219 42.5404 78.138 43.07 81.5882C43.3533 83.4447 43.341 80.5038 44.8725 85.104C46.3341 89.4866 46.252 90.3614 47.4591 91.8606C48.1448 92.7108 49.471 94.362 51.5732 94.5058C52.9199 94.6002 53.1375 93.9759 56.2291 93.1257C59.1279 92.3289 59.5302 92.715 60.9016 91.8853C62.4043 90.9775 63.2788 89.6919 63.944 88.7185C64.798 87.4617 65.1963 86.3527 65.8819 84.5085C66.8427 81.925 66.6456 81.621 67.2984 80.7092C68.4891 79.0539 69.6634 79.3373 70.9731 78.1175C73.0425 76.187 71.9585 76.5033 73.5311 71.8456C74.1757 69.9357 74.2003 70.905 78.1255 63.5487C79.8171 60.3779 79.9608 59.922 80.9503 58.4105C82.8184 55.56 83.4836 55.3916 84.0994 53.6295C84.9247 51.2637 84.1939 50.2204 85.2244 48.4584C85.9881 47.1481 86.7928 47.1974 88.1929 45.8872C89.5643 44.6016 89.4945 43.9691 91.5392 40.3382C94.3599 35.319 95.567 34.6166 95.7394 32.2796C95.7887 31.5936 95.7476 30.7886 95.9775 29.3346C96.1828 28.0367 96.3922 27.5644 96.7371 25.9789C97.1518 24.0772 97.3612 23.1243 97.3284 22.3768C97.2586 20.6928 96.384 18.29 94.713 17.9367C92.6149 17.4932 90.2048 20.4915 88.8211 22.2043C86.8503 24.6522 87.1542 25.3875 84.7892 29.2155C82.995 32.1235 82.7445 31.8237 79.8992 36.1364C78.417 38.3872 77.5507 39.7098 76.5529 41.6854C75.9083 42.9669 75.2924 44.4168 74.0648 47.3206C72.3691 51.3294 72.3814 51.5471 71.7902 52.3316C70.2012 54.4428 69.2939 53.9869 67.4134 56.2459C66.0626 57.8724 66.5306 58.1106 64.5434 60.9611C62.6506 63.672 61.5831 64.3784 60.7209 64.744C60.0517 65.0274 58.8528 65.5367 58.2082 65.0438C57.0298 64.1402 58.8733 60.7393 60.0311 55.9543C61.0165 51.8798 62.4577 45.9324 59.7602 42.014C57.4239 38.6172 53.2196 38.5433 53.0102 38.5433C48.6868 38.5433 44.3305 41.9688 42.8935 45.534C42.179 47.3124 42.5116 48.3228 41.2799 50.1013C39.9208 52.0605 38.8862 51.7401 37.3013 53.7774C36.8456 54.3647 36.1517 55.9625 34.7845 59.1334C33.4378 62.259 33.4583 62.3494 33.0765 62.8546C31.7297 64.6372 30.8757 64.2881 28.8064 66.4526C27.6486 67.6684 27.6773 68.0257 26.1746 69.5249C24.1422 71.5539 23.4196 71.5622 23.1445 71.5334C22.2741 71.4472 21.535 70.6585 21.3954 69.7796C21.2599 68.9335 21.7116 68.2065 22.2494 67.27C23.6536 64.822 24.3557 63.5939 24.6924 62.5096C25.5135 59.8604 23.9739 59.0759 24.6924 56.1555C25.0619 54.6605 25.6655 54.0567 26.6755 52.3686C27.8087 50.4751 28.8639 47.2837 30.9291 40.9748C32.7357 35.4504 32.6248 35.3313 33.3803 33.7582C35.1294 30.1232 35.9752 30.2259 37.7037 26.825C38.7917 24.681 40.7133 20.9064 40.3643 16.3842C40.1426 13.4762 39.075 11.5088 38.2375 9.95208C37.0673 7.78752 36.0778 5.95154 34.0618 5.44633C32.4688 5.04381 31.0153 5.66813 29.3607 6.40334Z" fill="#161616"/>
<path d="M116.802 4.38254C118.001 3.59393 118.716 3.63089 119.935 2.89568C120.153 2.76425 120.534 2.52191 121.122 2.2344C121.298 2.14815 121.491 2.06189 121.705 1.97153C122.382 1.69223 122.92 1.54847 123.347 1.43347C124.238 1.19935 124.891 1.10488 126.094 0.940588C127.276 0.776294 127.416 0.796831 128.43 0.640752C129.325 0.501103 129.945 0.373775 130.216 0.32038C131.472 0.0739394 132.688 0.020544 135.311 0.00411465C139.019 -0.016422 140.887 -0.0205294 141.523 0.332702C142.57 0.915944 142.96 1.7292 143.662 3.19962C144.332 4.60433 145.736 7.53697 144.229 9.24152C143.502 10.0671 142.718 9.89459 141.655 11.0323C140.817 11.9236 140.772 12.5972 140.341 13.5583C139.392 15.6859 137.516 17.1153 134.695 19.2757C132.614 20.8694 132.109 20.8612 131.316 21.9332C130.766 22.6766 130.372 23.5433 129.304 24.1019C128.73 24.4017 128.594 24.2826 127.937 24.5906C126.861 25.0917 126.627 25.6914 125.642 26.5704C125.273 26.899 124.308 27.4699 122.386 28.6035C120.506 29.7125 122.156 31.6881 122.156 31.6881C123.359 32.3494 125.819 32.5466 126.443 33.1544C127.338 34.0211 128.327 33.6104 129.226 35.3313C130.45 37.6684 131.181 37.3686 131.772 38.8472C132.445 40.5271 132.585 42.8601 132.618 43.546C132.807 47.5424 131.456 47.9409 132.803 48.9554C133.32 49.3456 134.17 49.4606 134.88 49.3045C135.541 49.1607 135.853 48.7747 137.459 47.756C138.152 47.3165 138.497 47.0742 139.22 46.5937C139.758 46.2363 141.347 45.1807 142.882 44.2484C144.512 43.2544 145.399 42.7163 146.688 42.1167C148.355 41.3404 149.378 40.8639 150.786 40.6544C151.55 40.5394 153.796 40.2067 155.631 41.3486C157.171 42.3056 157.565 43.7678 157.782 44.577C158.48 47.1687 157.364 49.5592 156.965 50.3888C156.707 50.9187 155.787 52.7218 153.759 54.4592C153.069 55.0548 151.546 56.2418 149.411 57.0509C146.528 58.1394 144.209 58.5912 144.209 58.5912C143.543 58.7185 142.739 58.8458 142.164 59.4414C141.651 59.9713 141.363 60.8174 141.659 61.339C141.909 61.7826 142.377 61.647 142.919 62.1974C143.01 62.2919 143.445 62.7314 143.498 63.2982C143.593 64.3333 142.336 64.8672 141.782 66.2596C141.306 67.4425 141.659 68.457 141.852 69.0197C142.267 70.2191 143.129 70.9091 144.406 71.9318C145.592 72.8806 145.851 72.7861 146.237 73.4105C146.844 74.3921 146.376 74.9055 146.992 76.0474C147.485 76.9592 148.245 77.4849 148.692 77.7889C149.85 78.5857 150.273 78.3352 150.926 78.9513C151.595 79.5838 152.285 80.9146 151.558 82.2125C150.688 83.7692 148.425 84.1142 148.158 84.1512C147.165 84.2867 146.5 84.0731 144.833 83.4242C141.322 82.0564 139.548 81.3582 138.694 80.5531C138.567 80.434 137.894 79.5181 136.555 77.6862C134.843 75.3532 134.773 75.2054 134.129 74.388C132.068 71.784 131.066 71.1145 130.733 70.9009C129.756 70.2766 128.779 69.6728 127.256 69.718C126.837 69.7303 124.796 70.7489 123.643 71.7347C122.632 72.5972 122.366 72.1988 122.082 72.437C121.955 72.5438 121.446 73.086 120.879 73.4803C120.617 73.6651 120.107 74.1826 119.561 75.2629C119.446 75.4929 119.229 75.9611 119.048 76.8031C118.761 78.1298 118.945 78.6021 118.847 79.7317C118.761 80.701 118.666 81.7607 117.964 82.9025C117.127 84.2538 115.312 86.4677 114.585 86.9072C114.265 87.1002 112.861 87.9258 110.758 88.3201C109.276 88.5953 109.034 88.3612 106.07 88.3201C102.51 88.2708 102.469 88.6076 100.556 88.3489C99.8945 88.2585 99.2827 88.1353 96.9547 87.7903C95.994 87.6506 95.5054 87.511 95.0537 87.5602C94.9018 87.5767 94.2613 88.0244 94.0601 88.0901C93.4484 88.2996 93.1651 88.2133 91.3913 88.2297C89.129 88.2503 89.3631 88.4515 88.8252 88.1681C87.8891 87.667 88.2504 86.8209 87.2363 85.3217C86.6902 84.5126 86.3864 84.4633 85.5365 83.5802C84.8426 82.8573 84.4936 82.3111 83.1017 79.9206C81.4676 77.1112 81.1925 74.2484 81.0488 73.7596C80.4617 71.7593 80.5766 70.0178 80.6546 69.0115C80.8271 66.7443 81.4471 64.9822 81.8987 63.7254C82.7281 61.4211 82.9991 61.7169 83.9845 59.0101C84.4813 57.6506 84.6989 56.7922 85.5529 55.5928C85.7869 55.2601 86.0045 54.9973 87.2937 53.5926C89.1044 51.6169 89.281 51.4773 89.8435 50.8447C90.9561 49.5961 90.8412 49.4975 93.4443 45.9776C95.1851 43.6241 95.4931 43.3201 95.9899 42.9874C97.2339 42.1495 97.8909 42.3138 99.3936 41.2911C100.478 40.5518 100.276 40.371 101.685 39.1922C103.799 37.4179 104.53 37.5904 105.474 36.3417C106.271 35.282 105.84 35.0356 106.788 33.8157C107.404 33.0271 108.073 32.5014 109.079 31.7169C110.639 30.497 111.001 30.5052 111.514 29.8316C111.67 29.6262 111.953 29.2114 112.274 27.1659C112.606 25.0383 112.774 23.9745 112.438 22.7998C112.187 21.9291 111.797 21.3582 111.424 20.8119C110.537 19.5263 109.929 19.3784 108.726 17.8012C108.09 16.9633 107.769 16.5362 107.712 15.9365C107.634 15.1273 107.991 14.7125 108.201 13.4392C108.394 12.2727 108.18 12.1002 108.283 11.2541C108.435 9.99727 109.211 7.76288 110.927 6.80176C112.676 5.82421 114.819 6.76069 115.451 5.86529C115.595 5.66403 115.772 5.21633 116.326 4.72755C116.498 4.57558 116.654 4.46879 116.79 4.37843L116.802 4.38254ZM124.291 6.08708C122.222 6.70729 120.645 7.17964 119.935 8.31737C119.549 8.93758 119.664 9.36063 119.721 10.7653C119.721 10.7653 119.808 12.9628 119.561 15.3738C119.225 18.6679 118.124 20.1711 119.007 20.7749C119.528 21.1323 120.378 20.9269 120.937 20.7872C122.456 20.4176 123.45 19.325 124.189 18.5159C124.915 17.7191 125.334 17.0003 125.654 16.4458C126.451 15.0575 126.229 14.8768 126.833 13.9444C127.74 12.5397 128.364 12.7533 129.387 11.3157C130.175 10.2067 129.83 10.0383 130.828 8.40362C131.661 7.04409 132.109 6.81819 132.018 6.38281C131.801 5.3108 128.873 5.37651 128.134 5.39705C126.512 5.43402 125.256 5.79957 124.291 6.08708ZM112.491 35.4463C111.534 35.7872 111.957 37.5534 110.664 39.5126C109.543 41.2048 108.426 41.098 106.887 42.7245C105.388 44.3059 105.039 45.8913 104.419 48.713C103.762 51.695 103.832 53.9006 103.922 56.2747C104.017 58.7226 104.115 60.8667 105.068 63.4173C106.152 66.313 107.359 67.1262 107.79 67.385C108.242 67.6602 109.954 68.7035 112.36 68.2475C113.928 67.9518 115 67.1673 116.305 66.2103C117.96 64.9986 120.058 63.4625 120.727 61.1952C121.286 59.3059 120.575 57.856 119.919 56.5211C118.794 54.221 119.163 53.5186 117.262 50.968C116.388 49.7974 115.131 48.713 114.934 45.2957C114.868 44.1785 114.708 42.4288 115.016 41.3075C115.472 39.6523 114.552 39.6605 114.626 38.075C114.692 36.7073 114.183 36.1651 114.023 36.0131C113.916 35.9105 113.173 35.204 112.491 35.4463Z" fill="#161616"/>
</g>
<defs>
<clipPath id="clip0_1_124">
<rect width="158" height="105" fill="white"/>
</clipPath>
</defs>
</svg>
